HIERARCHY
ROOT Hips
{
	OFFSET 0.000000 64.065262 0.000000
	CHANNELS 6 Xposition Yposition Zposition Xrotation Yrotation Zrotation 
	JOINT Spine
	{
		OFFSET 0.000000 6.292297 0.090600
		CHANNELS 3 Xrotation Yrotation Zrotation
		JOINT Spine1
		{
			OFFSET 0.000000 5.243558 0.075535
			CHANNELS 3 Xrotation Yrotation Zrotation
			JOINT Spine1_split
			{
				OFFSET 0.000000 5.243558 0.075535
				CHANNELS 3 Xrotation Yrotation Zrotation
				JOINT Spine2
				{
					OFFSET 0.000000 5.243558 0.075535
					CHANNELS 3 Xrotation Yrotation Zrotation
					JOINT Neck
					{
						OFFSET 0.000000 9.438423 0.135962
						CHANNELS 3 Xrotation Yrotation Zrotation
						JOINT Head
						{
							OFFSET 0.000000 9.228302 3.015700
							CHANNELS 3 Xrotation Yrotation Zrotation
							JOINT HeadTop_End
							{
								OFFSET 0.000000 52.542191 17.170099
								CHANNELS 3 Xrotation Yrotation Zrotation
								End Site
								{
									OFFSET 0.000000 0.000000 0.000000
								}
							}
						}
					}
					JOINT LeftShoulder
					{
						OFFSET 1.478400 4.134277 0.076557
						CHANNELS 3 Xrotation Yrotation Zrotation
						JOINT LeftShoulder_split
						{
							OFFSET 1.478400 4.134277 0.076557
							CHANNELS 3 Xrotation Yrotation Zrotation
							JOINT LeftArm
							{
								OFFSET 5.991047 -2.349594 0.034302
								CHANNELS 3 Xrotation Yrotation Zrotation
								JOINT LeftForeArm
								{
									OFFSET 23.597998 0.000008 -0.000001
									CHANNELS 3 Xrotation Yrotation Zrotation
									JOINT LeftHand
									{
										OFFSET 21.444199 0.000000 -0.000000
										CHANNELS 3 Xrotation Yrotation Zrotation
										JOINT LeftHandThumb1
										{
											OFFSET 2.589020 -1.036728 1.675835
											CHANNELS 3 Xrotation Yrotation Zrotation
											JOINT LeftHandThumb2
											{
												OFFSET 2.946751 -1.701309 1.701307
												CHANNELS 3 Xrotation Yrotation Zrotation
												JOINT LeftHandThumb3
												{
													OFFSET 3.442917 -1.987770 1.987768
													CHANNELS 3 Xrotation Yrotation Zrotation
													JOINT LeftHandThumb4
													{
														OFFSET 2.466549 -1.424057 1.424061
														CHANNELS 3 Xrotation Yrotation Zrotation
														End Site
														{
															OFFSET 0.000000 0.000000 0.000000
														}
													}
												}
											}
										}
										JOINT LeftHandIndex1
										{
											OFFSET 9.649925 -0.500473 2.441592
											CHANNELS 3 Xrotation Yrotation Zrotation
											JOINT LeftHandIndex2
											{
												OFFSET 4.033379 0.000000 0.000000
												CHANNELS 3 Xrotation Yrotation Zrotation
												JOINT LeftHandIndex3
												{
													OFFSET 3.114311 0.000000 0.000000
													CHANNELS 3 Xrotation Yrotation Zrotation
													JOINT LeftHandIndex4
													{
														OFFSET 2.751465 0.000000 0.000000
														CHANNELS 3 Xrotation Yrotation Zrotation
														End Site
														{
															OFFSET 0.000000 0.000000 0.000000
														}
													}
												}
											}
										}
										JOINT LeftHandMiddle1
										{
											OFFSET 9.829708 0.000000 -0.000000
											CHANNELS 3 Xrotation Yrotation Zrotation
											JOINT LeftHandMiddle2
											{
												OFFSET 4.740765 0.000000 -0.000000
												CHANNELS 3 Xrotation Yrotation Zrotation
												JOINT LeftHandMiddle3
												{
													OFFSET 3.909317 0.000000 -0.000000
													CHANNELS 3 Xrotation Yrotation Zrotation
													JOINT LeftHandMiddle4
													{
														OFFSET 2.782539 0.000000 0.000000
														CHANNELS 3 Xrotation Yrotation Zrotation
														End Site
														{
															OFFSET 0.000000 0.000000 0.000000
														}
													}
												}
											}
										}
										JOINT LeftHandRing1
										{
											OFFSET 9.079571 0.251678 -2.277514
											CHANNELS 3 Xrotation Yrotation Zrotation
											JOINT LeftHandRing2
											{
												OFFSET 4.325878 0.000000 -0.000000
												CHANNELS 3 Xrotation Yrotation Zrotation
												JOINT LeftHandRing3
												{
													OFFSET 3.227509 0.000000 -0.000000
													CHANNELS 3 Xrotation Yrotation Zrotation
													JOINT LeftHandRing4
													{
														OFFSET 2.382706 0.000000 0.000000
														CHANNELS 3 Xrotation Yrotation Zrotation
														End Site
														{
															OFFSET 0.000000 0.000000 0.000000
														}
													}
												}
											}
										}
										JOINT LeftHandPinky1
										{
											OFFSET 8.454662 -0.560661 -4.587733
											CHANNELS 3 Xrotation Yrotation Zrotation
											JOINT LeftHandPinky2
											{
												OFFSET 3.283970 0.000000 0.000000
												CHANNELS 3 Xrotation Yrotation Zrotation
												JOINT LeftHandPinky3
												{
													OFFSET 2.585968 0.000000 0.000000
													CHANNELS 3 Xrotation Yrotation Zrotation
													JOINT LeftHandPinky4
													{
														OFFSET 1.952499 0.000000 0.000000
														CHANNELS 3 Xrotation Yrotation Zrotation
														End Site
														{
															OFFSET 0.000000 0.000000 0.000000
														}
													}
												}
											}
										}
									}
								}
							}
						}
					}
					JOINT RightShoulder
					{
						OFFSET -1.478400 4.134273 0.059405
						CHANNELS 3 Xrotation Yrotation Zrotation
						JOINT RightShoulder_split
						{
							OFFSET -1.478400 4.134273 0.059405
							CHANNELS 3 Xrotation Yrotation Zrotation
							JOINT RightArm
							{
								OFFSET -5.991049 -2.349586 -0.034302
								CHANNELS 3 Xrotation Yrotation Zrotation
								JOINT RightForeArm
								{
									OFFSET -23.596397 0.000000 0.000000
									CHANNELS 3 Xrotation Yrotation Zrotation
									JOINT RightHand
									{
										OFFSET -21.446606 0.000000 0.000000
										CHANNELS 3 Xrotation Yrotation Zrotation
										JOINT RightHandThumb1
										{
											OFFSET -2.589405 -1.036880 1.675689
											CHANNELS 3 Xrotation Yrotation Zrotation
											JOINT RightHandThumb2
											{
												OFFSET -2.946491 -1.701157 1.701158
												CHANNELS 3 Xrotation Yrotation Zrotation
												JOINT RightHandThumb3
												{
													OFFSET -3.442833 -1.987717 1.987720
													CHANNELS 3 Xrotation Yrotation Zrotation
													JOINT RightHandThumb4
													{
														OFFSET -2.466621 -1.424103 1.424106
														CHANNELS 3 Xrotation Yrotation Zrotation
														End Site
														{
															OFFSET 0.000000 0.000000 0.000000
														}
													}
												}
											}
										}
										JOINT RightHandIndex1
										{
											OFFSET -9.650314 -0.500763 2.441559
											CHANNELS 3 Xrotation Yrotation Zrotation
											JOINT RightHandIndex2
											{
												OFFSET -4.032570 0.000000 0.000000
												CHANNELS 3 Xrotation Yrotation Zrotation
												JOINT RightHandIndex3
												{
													OFFSET -3.114609 0.000000 0.000000
													CHANNELS 3 Xrotation Yrotation Zrotation
													JOINT RightHandIndex4
													{
														OFFSET -2.751961 0.000000 0.000000
														CHANNELS 3 Xrotation Yrotation Zrotation
														End Site
														{
															OFFSET 0.000000 0.000000 0.000000
														}
													}
												}
											}
										}
										JOINT RightHandMiddle1
										{
											OFFSET -9.829220 0.000000 0.000000
											CHANNELS 3 Xrotation Yrotation Zrotation
											JOINT RightHandMiddle2
											{
												OFFSET -4.741558 0.000000 0.000000
												CHANNELS 3 Xrotation Yrotation Zrotation
												JOINT RightHandMiddle3
												{
													OFFSET -3.908623 0.000000 0.000000
													CHANNELS 3 Xrotation Yrotation Zrotation
													JOINT RightHandMiddle4
													{
														OFFSET -2.783035 0.000000 0.000000
														CHANNELS 3 Xrotation Yrotation Zrotation
														End Site
														{
															OFFSET 0.000000 0.000000 0.000000
														}
													}
												}
											}
										}
										JOINT RightHandRing1
										{
											OFFSET -9.079887 0.251701 -2.277485
											CHANNELS 3 Xrotation Yrotation Zrotation
											JOINT RightHandRing2
											{
												OFFSET -4.325874 0.000000 0.000000
												CHANNELS 3 Xrotation Yrotation Zrotation
												JOINT RightHandRing3
												{
													OFFSET -3.226913 0.000000 0.000000
													CHANNELS 3 Xrotation Yrotation Zrotation
													JOINT RightHandRing4
													{
														OFFSET -2.383308 0.000000 0.000000
														CHANNELS 3 Xrotation Yrotation Zrotation
														End Site
														{
															OFFSET 0.000000 0.000000 0.000000
														}
													}
												}
											}
										}
										JOINT RightHandPinky1
										{
											OFFSET -8.454163 -0.560486 -4.587659
											CHANNELS 3 Xrotation Yrotation Zrotation
											JOINT RightHandPinky2
											{
												OFFSET -3.284775 0.000000 0.000000
												CHANNELS 3 Xrotation Yrotation Zrotation
												JOINT RightHandPinky3
												{
													OFFSET -2.585663 0.000000 0.000000
													CHANNELS 3 Xrotation Yrotation Zrotation
													JOINT RightHandPinky4
													{
														OFFSET -1.952400 0.000000 0.000000
														CHANNELS 3 Xrotation Yrotation Zrotation
														End Site
														{
															OFFSET 0.000000 0.000000 0.000000
														}
													}
												}
											}
										}
									}
								}
							}
						}
					}
				}
			}
		}
	}
	JOINT LeftUpLeg
	{
		OFFSET 7.294000 -3.492199 -1.348700
		CHANNELS 3 Xrotation Yrotation Zrotation
		JOINT LeftLeg
		{
			OFFSET 0.363959 -22.776356 1.166233
			CHANNELS 3 Xrotation Yrotation Zrotation
			JOINT LeftFoot
			{
				OFFSET -0.363954 -24.519972 -1.068663
				CHANNELS 3 Xrotation Yrotation Zrotation
				JOINT LeftToeBase
				{
					OFFSET 1.087091 -12.527323 15.236030
					CHANNELS 3 Xrotation Yrotation Zrotation
					JOINT LeftToe_End
					{
						OFFSET 0.053868 0.133989 7.430298
						CHANNELS 3 Xrotation Yrotation Zrotation
						End Site
						{
							OFFSET 0.000000 0.000000 0.000000
						}
					}
				}
			}
		}
	}
	JOINT RightUpLeg
	{
		OFFSET -7.294000 -3.492199 -0.885100
		CHANNELS 3 Xrotation Yrotation Zrotation
		JOINT RightLeg
		{
			OFFSET -0.363914 -22.776333 0.702670
			CHANNELS 3 Xrotation Yrotation Zrotation
			JOINT RightFoot
			{
				OFFSET 0.363913 -24.520035 -0.924374
				CHANNELS 3 Xrotation Yrotation Zrotation
				JOINT RightToeBase
				{
					OFFSET -1.087056 -12.526639 14.851860
					CHANNELS 3 Xrotation Yrotation Zrotation
					JOINT RightToe_End
					{
						OFFSET -0.053863 0.134314 7.389584
						CHANNELS 3 Xrotation Yrotation Zrotation
						End Site
						{
							OFFSET 0.000000 0.000000 0.000000
						}
					}
				}
			}
		}
	}
}
MOTION
Frames: 4
Frame Time: 0.016667
-0.158479 63.508816 0.998871 -3.754278 -5.227248 -3.376687 3.307957 1.535444 2.345228 1.151891 0.343835 1.552799 0.000000 0.000000 0.000000 1.126015 0.365523 1.555885 5.626312 -0.078963 0.454557 5.621571 -0.099934 0.492566 -0.000000 0.000000 -0.000000 1.049656 -17.442100 -12.319445 0.000000 0.000000 0.000000 3.916265 -19.989276 -69.765273 -0.000006 -1.459360 0.000015 -33.230503 -1.364821 -6.186627 -0.662998 2.160329 4.832485 11.856344 25.420636 17.057593 -13.814002 3.537309 9.035964 -0.000001 0.000001 -0.000002 0.015891 -0.969083 -7.593276 0.267877 1.752856 -17.375629 0.057665 0.820936 -8.037962 -0.000000 0.000000 -0.000002 -0.076302 2.665763 -15.696746 0.268811 1.755923 -17.407048 0.300550 1.854010 -18.413948 -0.000000 -0.000003 0.000000 0.136914 3.641748 -21.133435 0.386598 2.094751 -20.911785 0.283039 1.800608 -17.864927 -0.000001 0.000000 0.000001 0.927904 5.555800 -27.127949 0.268801 1.755811 -17.405793 0.241889 1.667670 -16.505821 -0.000002 0.000001 -0.000001 1.205469 15.344254 14.705935 0.000000 0.000000 0.000000 13.158856 27.555119 58.785177 0.000009 6.693734 0.000001 -20.179096 -0.514099 6.782790 -1.665243 -0.174475 -4.219045 12.723279 -29.825968 -16.128740 -15.549417 -3.559431 -12.707124 0.000000 -0.000001 -0.000000 0.037413 1.262167 6.823685 0.213736 -1.396031 17.407019 0.046018 -0.653848 8.053231 0.000001 -0.000001 -0.000001 -0.136210 -2.205112 14.998875 0.214451 -1.398345 17.436843 0.239781 -1.476534 18.446282 -0.000000 -0.000000 0.000002 0.030613 -3.075762 20.451022 0.308444 -1.668283 20.948532 0.225822 -1.434059 17.897092 0.000001 0.000002 0.000001 0.754238 -4.882582 26.474168 0.214473 -1.398386 17.437236 0.193002 -1.328175 16.535801 -0.000001 0.000002 0.000002 -9.868437 14.905440 10.392704 13.942400 1.897834 4.205203 -1.254380 0.741811 -7.881993 -4.928821 -0.000002 -0.000007 -0.000000 -0.000001 -0.000000 4.883032 -10.205872 4.190563 4.930261 -9.727280 -3.276247 -5.516664 -1.726955 3.198033 -7.282728 -0.000009 -0.000002 -0.000001 -0.000000 0.000001 
-0.142369 63.503738 0.976727 -3.771904 -5.285726 -3.379232 3.317797 1.535485 2.346718 1.163731 0.343836 1.558787 0.000000 0.000000 0.000000 1.137791 0.365522 1.561480 5.656638 -0.078963 0.454557 5.651774 -0.099934 0.492568 0.000000 -0.000000 -0.000000 1.049800 -17.451208 -12.312512 0.000000 0.000000 0.000000 3.911508 -20.013621 -69.740480 -0.000018 -1.459360 0.000013 -33.219093 -1.346218 -6.197112 -0.658228 2.120030 4.807516 11.849233 25.420340 17.080307 -13.814004 3.537307 9.035971 0.000001 0.000003 -0.000000 0.014893 -0.975238 -7.596086 0.267882 1.752860 -17.375626 0.057669 0.820935 -8.037939 -0.000001 -0.000001 -0.000002 -0.077600 2.660490 -15.689008 0.268811 1.755924 -17.407034 0.300553 1.854010 -18.413927 -0.000000 -0.000001 0.000000 0.128366 3.617062 -21.075300 0.386183 2.093664 -20.900439 0.282716 1.799597 -17.854572 0.000000 0.000000 -0.000001 0.923369 5.547720 -27.094744 0.267526 1.751763 -17.364323 0.240687 1.663609 -16.464378 0.000000 -0.000001 -0.000001 1.207001 15.349173 14.695222 0.000000 0.000000 0.000000 13.175694 27.615633 58.729163 0.000012 6.729637 0.000010 -20.229764 -0.504259 6.785261 -1.619235 -0.175965 -4.198038 12.700889 -29.826190 -16.192056 -15.571528 -3.576860 -12.735077 0.000000 -0.000001 -0.000003 0.035027 1.246799 6.882031 0.214512 -1.398566 17.439664 0.046406 -0.656480 8.085831 0.000003 -0.000003 -0.000002 -0.135734 -2.206574 14.995332 0.214419 -1.398246 17.435603 0.239751 -1.476430 18.444994 0.000001 0.000002 -0.000000 0.023781 -3.053622 20.368029 0.305953 -1.661772 20.862936 0.223694 -1.427430 17.811634 0.000002 -0.000000 0.000000 0.763392 -4.902909 26.384418 0.215514 -1.401725 17.480297 0.194021 -1.331541 16.578872 0.000003 -0.000001 -0.000000 -9.914164 14.902771 10.391850 14.035477 1.954284 4.205639 -1.276053 0.742160 -7.868328 -4.928815 0.000012 0.000001 0.000000 -0.000003 -0.000000 4.744201 -10.208899 4.137732 5.162165 -9.690287 -3.246388 -5.591043 -1.721887 3.199386 -7.282727 -0.000005 0.000001 -0.000001 -0.000001 0.000000 
-0.125902 63.498104 0.950995 -3.793266 -5.341964 -3.386931 3.330827 1.535555 2.350172 1.176379 0.343836 1.565849 0.000000 0.000000 0.000000 1.150303 0.365522 1.568004 5.689001 -0.074011 0.454557 5.684135 -0.094679 0.492567 -0.000000 -0.000000 0.000000 1.051851 -17.467101 -12.294442 0.000000 0.000000 0.000000 3.918744 -20.037197 -69.732618 0.000007 -1.464782 -0.000011 -33.209503 -1.332623 -6.202720 -0.721501 2.051126 4.813102 11.854809 25.424131 17.061439 -13.806871 3.529469 9.025905 -0.000001 -0.000000 -0.000000 0.016143 -0.992524 -7.548509 0.267874 1.752863 -17.375634 0.057677 0.820936 -8.037949 0.000001 -0.000001 -0.000000 -0.085402 2.628568 -15.644308 0.268807 1.755919 -17.407048 0.300560 1.854014 -18.413946 -0.000001 -0.000002 -0.000001 0.115985 3.579295 -20.953326 0.385538 2.091949 -20.882480 0.282187 1.797976 -17.838028 -0.000000 -0.000000 0.000000 0.903750 5.523107 -27.045713 0.267178 1.750665 -17.353171 0.240373 1.662513 -16.453185 -0.000001 0.000001 -0.000002 1.207365 15.362701 14.680648 0.000000 0.000000 0.000000 13.210185 27.701772 58.672124 0.000002 6.767944 -0.000010 -20.271764 -0.495535 6.777550 -1.572074 -0.099401 -4.187530 12.704002 -29.826162 -16.183268 -15.578538 -3.577590 -12.751327 -0.000001 -0.000001 0.000002 0.037804 1.295870 6.764817 0.215223 -1.400815 17.468520 0.046732 -0.658800 8.114680 0.000005 -0.000003 -0.000002 -0.140537 -2.168610 14.777200 0.214163 -1.397381 17.424311 0.239450 -1.475561 18.433864 0.000002 0.000001 0.000000 0.020954 -3.033601 20.097258 0.302358 -1.652301 20.738546 0.220610 -1.417804 17.687260 0.000000 -0.000001 0.000002 0.761110 -4.905955 26.065559 0.215423 -1.401417 17.476292 0.193909 -1.331228 16.575042 0.000001 -0.000001 0.000002 -9.968217 14.899291 10.395857 14.138567 2.007059 4.206231 -1.292124 0.740317 -7.855271 -4.928815 0.000001 -0.000004 -0.000000 -0.000000 -0.000001 4.608528 -10.215597 4.083719 5.391897 -9.648271 -3.211474 -5.660757 -1.716200 3.200347 -7.282722 -0.000032 -0.000004 -0.000001 0.000003 0.000000 
-0.109485 63.492153 0.921743 -3.817974 -5.396334 -3.395364 3.345429 1.535625 2.354870 1.188881 0.343836 1.573543 0.000000 0.000000 0.000000 1.162612 0.365522 1.575042 5.723530 -0.065489 0.454558 5.718660 -0.086255 0.492567 0.000000 0.000000 -0.000000 1.056429 -17.484610 -12.266764 0.000000 0.000000 0.000000 3.932965 -20.058698 -69.739086 0.000006 -1.473417 0.000006 -33.208772 -1.324702 -6.205577 -0.823817 1.951903 4.828697 11.868681 25.433543 17.014486 -13.790088 3.510609 9.002788 0.000002 -0.000000 0.000000 0.014355 -1.021090 -7.463042 0.267759 1.752539 -17.372320 0.057618 0.820589 -8.034593 -0.000002 -0.000000 -0.000000 -0.095484 2.585587 -15.570728 0.268813 1.755918 -17.407033 0.300540 1.854010 -18.413959 -0.000000 -0.000001 -0.000003 0.100861 3.531566 -20.783251 0.384647 2.089606 -20.858030 0.281470 1.795765 -17.815321 0.000000 -0.000001 -0.000003 0.874421 5.486615 -26.992809 0.267710 1.752359 -17.370508 0.240876 1.664214 -16.470525 -0.000001 -0.000001 -0.000002 1.210188 15.386833 14.663561 0.000000 0.000000 0.000000 13.265787 27.811429 58.606623 0.000005 6.811064 0.000003 -20.298166 -0.488630 6.765823 -1.523980 0.019417 -4.195983 12.726760 -29.831804 -16.117494 -15.575218 -3.565411 -12.761979 0.000003 0.000001 -0.000000 0.041167 1.397137 6.511304 0.215716 -1.402378 17.488689 0.046973 -0.660435 8.134853 0.000001 -0.000001 -0.000001 -0.149130 -2.099283 14.397364 0.213673 -1.395908 17.405576 0.238986 -1.474144 18.415382 0.000002 -0.000001 -0.000004 0.018725 -3.008696 19.691456 0.298288 -1.641522 20.596951 0.217119 -1.406800 17.545639 0.000001 0.000001 0.000002 0.747195 -4.889559 25.578198 0.214670 -1.399051 17.445806 0.193225 -1.328891 16.544813 0.000000 0.000000 -0.000002 -10.030091 14.895452 10.403322 14.249350 2.053905 4.206845 -1.299428 0.737406 -7.843843 -4.932310 0.000005 -0.000004 0.000000 0.000000 0.000000 4.424941 -10.223747 4.021983 5.710278 -9.610792 -3.174874 -5.757812 -1.709638 3.205526 -7.282728 0.000002 0.000001 -0.000001 0.000001 0.000000 
